{"title":"The Hungover Games 2014 HDRip X264 AAC-KSRG [3x]","uid":9555245,"size":506849305,"categoryP":"video","categoryS":"movies","magnet":"?xt=urn:btih:712d26eac09f388b26c55620a4ef19b26aedd87b&amp;dn=The+Hungover+Games+2014+HDRip+X264+AAC-KSRG+%5B3x%5D&amp;tr=udp%3A%2F%2Ftracker.openbittorrent.com%3A80&amp;tr=udp%3A%2F%2Fopen.demonii.com%3A1337&amp;tr=udp%3A%2F%2Ftracker.coppersurfer.tk%3A6969&amp;tr=udp%3A%2F%2Fexodus.desync.com%3A6969","seeders":1,"leechers":0,"uploader":"NewSky005","files":5,"time":1391353918,"description":" \t[center]\nThe Hungover Games 2014 HDRip X264 AAC-KSRG [3x]\n\n\n\n &lt;a href=&quot;\nhttp://www.imdb.com/title/tt3138104/&quot; rel=&quot;nofollow&quot; target=&quot;_NEW&quot;&gt;\nhttp://www.imdb.com/title/tt3138104/&lt;/a&gt;\n\nGeneral\nComplete name : The Hungover Games 2014 HDRip X264 AAC-KSRG.mp4\nFormat : MPEG-4\nFormat profile : Base Media\nCodec ID : isom\nFile size : 483 MiB\nDuration : 1h 20mn\nOverall bit rate mode : Variable\nOverall bit rate : 836 Kbps\n\nVideo\nID : 1\nFormat : AVC\nFormat/Info : Advanced Video Codec\nFormat profile : &lt;a class=&quot;__cf_email__&quot; href=&quot;/cdn-cgi/l/email-protection&quot; data-cfemail=&quot;034e626a6d434f302d33&quot;&gt;[email&amp;#160;protected]&lt;/a&gt;&lt;script cf-hash='f9e31' type=&quot;text/javascript&quot;&gt;\n/* &lt;![CDATA[ */!function(){try{var t=&quot;currentScript&quot;in document?document.currentScript:function(){for(var t=document.getElementsByTagName(&quot;script&quot;),e=t.length;e--;)if(t[e].getAttribute(&quot;cf-hash&quot;))return t[e]}();if(t&amp;&amp;t.previousSibling){var e,r,n,i,c=t.previousSibling,a=c.getAttribute(&quot;data-cfemail&quot;);if(a){for(e=&quot;&quot;,r=parseInt(a.substr(0,2),16),n=2;a.length-n;n+=2)i=parseInt(a.substr(n,2),16)^r,e+=String.fromCharCode(i);e=document.createTextNode(e),c.parentNode.replaceChild(e,c)}}}catch(u){}}();/* ]]&gt; */&lt;/script&gt;\nFormat settings, CABAC : Yes\nFormat settings, ReFrames : 4 frames\nCodec ID : avc1\nCodec ID/Info : Advanced Video Coding\nDuration : 1h 20mn\nBit rate : 803 Kbps\nMaximum bit rate : 2 704 Kbps\nWidth : 704 pixels\nHeight : 400 pixels\nDisplay aspect ratio : 16:9\nFrame rate mode : Constant\nFrame rate : 23.976 fps\nColor space : YUV\nChroma subsampling : 4:2:0\nBit depth : 8 bits\nScan type : Progressive\nBits/(Pixel*Frame) : 0.119\nStream size : 464 MiB (96%)\nWriting library : x264 core 138 r2358 9e941d1\n\nAudio\nID : 2\nFormat : AAC\nFormat/Info : Advanced Audio Codec\nFormat profile : LC\nCodec ID : 40\nDuration : 1h 20mn\nBit rate mode : Variable\nBit rate : 29.1 Kbps\nMaximum bit rate : 49.7 Kbps\nChannel count : 2 channels\nChannel positions : Front: L R\nSampling rate : 48.0 KHz\nCompression mode : Lossy\nStream size : 16.9 MiB (3%)\nScreens &lt;a href=&quot;\nhttp://lookpic.com/O/i2/390/6iJe6LNC.png&quot; rel=&quot;nofollow&quot; target=&quot;_NEW&quot;&gt;\nhttp://lookpic.com/O/i2/390/6iJe6LNC.png&lt;/a&gt;","torrent":{"xt":"urn:btih:712d26eac09f388b26c55620a4ef19b26aedd87b","amp;dn":"The+Hungover+Games+2014+HDRip+X264+AAC-KSRG+%5B3x%5D","amp;tr":["udp%3A%2F%2Ftracker.openbittorrent.com%3A80","udp%3A%2F%2Fopen.demonii.com%3A1337","udp%3A%2F%2Ftracker.coppersurfer.tk%3A6969","udp%3A%2F%2Fexodus.desync.com%3A6969"],"infoHash":"712d26eac09f388b26c55620a4ef19b26aedd87b","infoHashBuffer":{"type":"Buffer","data":[113,45,38,234,192,159,56,139,38,197,86,32,164,239,25,178,106,237,216,123]},"announce":[],"urlList":[]}}